<?xml version="1.0" encoding="UTF-8"?>
<svg id="Layer_1" data-name="Layer 1" xmlns="http://www.w3.org/2000/svg" viewBox="0 0 444.73 90.45">
  <defs>
    <style>
      .cls-1 {
        fill: #241f20;
      }
    </style>
  </defs>
  <g>
    <polygon class="cls-1" points="100.54 32.11 97.33 28.17 94.07 32.11 97.33 36.19 100.54 32.11"/>
    <g>
      <g>
        <path class="cls-1" d="m439.89,38.43v-1.81h.51c.58,0,.87.2.97.7.12.56.22.95.36,1.11h.82c-.1-.15-.2-.41-.34-1.06-.14-.56-.34-.9-.7-1.06v-.05c.43-.15.82-.49.82-1.01,0-.41-.19-.73-.44-.92-.27-.2-.63-.34-1.35-.34-.6,0-1.06.05-1.5.14v4.29h.85Zm.58-3.8c.73,0,1.02.31,1.02.72,0,.48-.55.66-1.11.66h-.53v-1.33c.12-.02.31-.05.61-.05Z"/>
        <path class="cls-1" d="m440.59,40.31c2.33,0,4.14-1.86,4.14-4.14s-1.81-4.09-4.12-4.09h-.02c-2.33,0-4.19,1.76-4.19,4.09s1.86,4.14,4.19,4.14Zm-.03-7.51h.03c1.84,0,3.24,1.53,3.24,3.41s-1.4,3.41-3.22,3.37c-1.91,0-3.32-1.55-3.32-3.41s1.41-3.37,3.27-3.37Z"/>
      </g>
      <path class="cls-1" d="m211.65,51.56l-2.97-1.64s-.15,4.49-9.91,12.07v-21.54s-4.87,2.44-4.87,2.44v7.71c-4.22,6.4-6.91,9.59-8.05,9.59h-.46c-.86,0-1.28-.54-1.28-1.61v-18.13l-4.91,2.44c-.89,2.99-2.73,6.71-5.49,11.11-2.96,4.03-5.32,6.06-7.06,6.06-1.98,0-3.72-.91-5.21-2.75-1.49-1.84-3.44-4.59-5.82-8.26,2.47-2.82,4.58-4.22,6.29-4.22,1.49,0,2.79,1.26,3.86,3.77,2.14-1.23,3.21-2.3,3.21-3.21,0-.65-.49-1.46-1.46-2.45-.96-1-2.12-1.49-3.47-1.49-1.84,0-3.75.77-5.75,2.31-2,1.54-4.79,4.54-8.36,8.98v-12.03c4.14-6.07,7.27-11.48,9.41-16.25,2.16-4.84,3.23-8.58,3.21-11.29-.02-2.88-2.46-5.15-5.34-5.1s-5.7,1.43-8.14,4.17c-2.51,2.79-3.75,6.03-3.75,9.73v20.77c0,.36-2.57,4.42-6.85,11.06-2.95,4.01-5.18,6.26-6.69,6.26-.61,0-.98-.3-1.12-.91-.14-.61-.21-1.75-.21-3.4v-6.15c0-3.61-.35-5.87-1.05-6.78-.7-.93-1.7-1.38-2.98-1.38-1.42,0-2.82.54-4.19,1.65-1.37,1.1-3.17,3.28-5.42,6.52v-8.54l-4.51,2.16c-.51,2.19-1.46,4.54-2.86,7.06-1.23,2.21-2.68,4.29-4.35,6.2-2.03,2.32-3.66,3.61-4.69,3.61-.67,0-1.1-.3-1.26-.88s-.25-1.77-.25-3.58v-14.55l-4.59,2.44c-.79,3.41-2.43,6.93-4.93,10.56-.25.32-.49.63-.74.92-1.2,1.2-2.27,2.3-3.36,3.16-1.42.98-2.86,1.56-4.34,1.72-5.34-.02-6.9-5.92-6.9-17.19,0-10.34,1.89-22.71,11.27-34.49l-.57-.57c-1.91,1.53-4.31,2.97-7.08,2.97-2.2,0-4.79-1.63-7.08-4.02l-10.24,12.82v-6.03c0-5.84-2.01-7.37-4.21-7.37-2.68,0-8.12,5.69-10.99,9.14-3.06-5.07-7.64-15.12-19.41-15.12C11.58,0,0,13.88,0,28.04c0,6.41,3.54,13.02,11.48,13.02,9.38,0,15.69-10.05,15.69-17.51,0-4.5-1.82-9-6.51-9-2.2,0-4.98,2.3-4.98,4.79,0,.86.19,1.72.19,2.68l.57.1c.86-2.01,2.01-2.87,3.54-2.87,2.2,0,4.69,2.11,4.69,6.32,0,5.45-4.5,11.39-11.29,11.39-5.17,0-10.62-4.79-10.62-13.11,0-7.27,6.51-19.71,18.28-19.71,12.92,0,20.67,12.73,20.67,26.41s-6.12,31.39-19.71,31.39c-6.12,0-9.09-3.64-11.01-8.8-1.63.86-3.64,2.97-4.5,4.31,2.68,4.21,6.99,6.7,13.4,6.7,14.16,0,26.88-14.83,26.88-35.41,0-3.83-.67-6.6-.96-10.34.48-1.72,6.11-7.99,7.64-7.99.96,0,1.53.77,1.53,4.12v49.86l5.26-1.63V22.25l8.04-9.76c2.01.96,3.92,1.72,5.46,1.72,1.63,0,3.83-.57,5.36-.96l-4.02,6.99c-4.98,11.12-6.2,19.08-6.2,25.97,0,10.81,3.62,17.67,8.88,17.67,3.53,0,6.5-1.69,9.18-4.2,1.15-.99,2.25-2.2,3.3-3.62.02-.02.04-.05.06-.07h0c.14-.19.27-.37.41-.56,1.55-2.08,2.76-4.2,3.61-6.38v8.34c0,2.23.23,3.79.65,4.68.42.89,1.47,1.33,3.12,1.33,1.47,0,3.12-.7,4.96-2.1,1.84-1.42,3.77-3.47,5.53-6.1h0c1.59-2.18,2.81-4.33,3.64-6.46v15.43l4.59-2.95v-8.26c0-.18.56-1.1,1.68-2.77,1.12-1.67,1.98-2.86,2.59-3.58s1.17-1.26,1.72-1.63c.54-.37,1.05-.54,1.54-.54,1,0,1.51.82,1.51,2.44v10.5c0,2.56.3,4.21.88,4.93.58.72,1.42,1.09,2.52,1.09,3.22,0,6.62-2.59,10.15-7.59h0s5.93-8.57,5.93-8.57v16.85l4.59-2.33v-6.24l2.35-2.89c2.79,4.38,4.93,7.28,6.42,8.68,1.49,1.4,3.24,2.1,5.26,2.1,3.83,0,7.49-2.65,10.99-7.95,1.73-2.43,3.16-4.91,4.26-7.46v10.78c0,3.21,1.47,4.82,4.42,4.82,1.4,0,2.84-.65,4.31-1.95,1.47-1.3,3.47-3.73,5.98-7.28v10.94c-10.56,7.2-19.24,13.94-16.86,19.58.68,1.7,2.44,3.1,4.31,4.08,1.86.98,3.75,1.47,5.64,1.47,3.33,0,6.58-1.09,8.83-3.55,2.26-2.44,2.94-5.59,2.94-9.2v-12.73c10.5-7.01,12.76-11.02,13.24-12.49.12-.36-.03-.74-.36-.92Zm-61.73-14.44v-17.39c0-2.63.56-4.91,1.7-6.82s2.51-2.87,4.14-2.87c1.02,0,1.82.42,2.42,1.26.6.84.89,1.86.89,3.05,0,2.45-.77,5.66-2.31,9.66-1.54,3.98-3.82,8.36-6.82,13.1l-.02.02Zm42.37,49.12c-1.22,1.13-2.72,1.9-4.65,1.9-1.77,0-4.5-.7-5.74-1.84s-1.91-2.17-1.91-3.73c0,0-.26-4.36,13.93-14.32v11.78c0,2.66-.28,4.97-1.63,6.22Z"/>
    </g>
  </g>
  <path class="cls-1" d="m435.01,53.38c-1.44,1.98-3.05,3.51-4.8,4.54-1.77,1.03-3.37,1.56-4.8,1.56-3,0-4.98-1.09-5.93-3.3,7.01-3.86,10.52-7.77,10.52-11.75,0-1.16-.4-2.1-1.21-2.84-.81-.74-1.84-1.1-3.1-1.1-2.26,0-4.47.89-6.61,2.65-2.02,1.66-4.88,5.07-8.56,10.2h0c-1.47,2.05-2.82,3.61-3.89,4.56-1.07.95-2.19,1.42-3.35,1.42-.7,0-1.35-.4-1.93-1.17-.58-.79-.88-1.61-.88-2.51,0-2.84.56-5.45,1.7-7.82,1.14-2.37,2.63-4.72,4.51-7.05l-.79-.54c-1.17,1.24-2.54,1.88-4.14,1.88-1.68,0-4-.68-6.94-2.07-2.14,5.29-4.66,10.03-7.54,14.18h0c-2.63,3.4-4.63,5.1-6.02,5.1-.65,0-1.03-.35-1.17-1.03-.14-.68-.21-1.98-.21-3.87v-14.36l-4.65,2.33v6.98c0,.23-.77,1.47-2.28,3.77-1.53,2.3-2.82,3.96-3.91,5-1.09,1.03-1.98,1.56-2.65,1.56-.61,0-.98-.19-1.12-.61-.14-.4-.21-1.21-.21-2.4v-16.62l-4.59,2.33c-.98,3.98-2.82,7.92-5.56,11.83h0s0,0,0,0c-2.89,4.07-4.73,5.1-6.82,5.1-.82,0-1.33-.37-1.51-1.09-.19-.72-.28-2.16-.28-4.29v-18.63l7.08-3.53.19-2.44-7.27,3.62v-14.82l-4.59,4.51v12.6l-6.53,3.26-.19,2.44,6.72-3.35v3.86c0,.25-.58,1.38-1.72,3.42-1.14,2.03-2.12,3.66-2.91,4.93-.79,1.24-1.75,2.72-2.89,4.4l.75.53-.75-.53c-2.98,4.01-4.45,5.12-5.96,5.12-.65,0-1.03-.35-1.17-1.03-.14-.68-.21-1.98-.21-3.87v-14.36l-4.65,2.33v6.98c0,.23-.77,1.47-2.28,3.77-1.53,2.3-2.82,3.96-3.91,5-1.09,1.03-1.98,1.56-2.65,1.56-.61,0-.98-.19-1.12-.61-.14-.4-.21-1.21-.21-2.4v-16.62l-4.59,2.33c-.98,3.98-2.82,7.92-5.56,11.83-3.08,4.74-6.64,6.9-11.5,8.06-.38.08,2.93-.85,4.89-3.12,2.7-3.12,3.38-6.85,3.38-10.43,0-2.51-.75-4.47-2.28-5.87-1.53-1.4-3.49-2.1-6.28-2.1s-5.45.82-7.99,2.47c-2.53,1.66-5.79,5.29-9.76,10.93-1.41,1.74-2.91,3.05-4.53,3.9-2.17,1.14-4.87,1.72-8.12,1.72-6.52,0-11.92-2.47-16.2-7.45-4.28-4.98-6.42-11.18-6.42-18.65,0-8.1,2.38-15.04,7.17-20.83,4.77-5.79,10.26-8.68,16.44-8.68,3.7,0,6.7,1.12,8.96,3.35,2.26,2.23,3.4,5.05,3.4,8.85s-1.21,7.03-3.61,9.71c-2.4,2.68-5.15,4.01-8.24,4.01-2,0-3.65-.6-4.94-1.81-1.3-1.21-1.95-2.77-1.95-4.66,0-3.09,1.1-5.35,3.31-6.78l-.96-1.14c-4.08,3.17-6.12,6.57-6.12,10.19,0,2.26.72,4.1,2.17,5.5,1.46,1.4,3.33,2.1,5.63,2.1,4.54,0,8.75-2.14,12.64-6.4,3.89-4.28,5.84-9.1,5.84-14.48,0-3.68-1.1-6.57-3.33-8.68-2.23-2.12-5.22-3.17-9.03-3.17-5.21,0-10.4,1.79-15.55,5.36-5.17,3.58-9.33,8.31-12.5,14.22-3.17,5.91-4.75,11.97-4.75,18.18,0,7.36,2.23,13.32,6.68,17.85,4.45,4.52,10.38,6.78,17.76,6.78,4.56,0,8.31-.77,11.27-2.28,2.3-1.17,4.37-2.97,6.24-5.34h0c.12-.15.23-.31.35-.46.18-.23.35-.47.52-.71.88-1.21,1.55-2.18,1.9-2.58-.19.96-.28,2.07-.28,3.3,0,2.3.74,4.17,2.23,5.66.46.47.98.85,1.54,1.17-.02,0-.03,0-.03,0,0,0,.11.06.3.16.06.03.13.06.19.09.14.06.3.14.49.21.04.02.09.04.13.05,1.58.62,4.8,1.52,9.42,1,2.17-.23,4.35-.91,6.52-2.03,2.13-1.1,4.58-3.39,6.98-6.76.02-.02.04-.05.05-.07.04-.05.07-.1.11-.15h0c1.16-1.61,2.29-3.64,3.4-6.12v7.52c0,3.12.35,5.1,1.03,5.96.68.86,1.65,1.28,2.91,1.28s2.47-.49,3.82-1.49c1.33-.98,3.66-3.93,6.98-8.78v3.86c0,2.51.3,4.14.89,4.89.6.75,1.46,1.12,2.59,1.12,3.37,0,6.33-1.95,10.03-7.4,1.95-2.63,3.96-5.7,6.01-9.22v11.1c0,1.93.21,3.33.68,4.21.47.88,1.61,1.31,3.45,1.31,3.86,0,8.11-3.21,11.56-8.72h0c1.04-1.53,2.06-3.4,3.06-5.64v7.52c0,3.12.35,5.1,1.03,5.96.68.86,1.65,1.28,2.91,1.28s2.47-.49,3.82-1.49c1.33-.98,3.66-3.93,6.98-8.78v3.86c0,2.51.3,4.14.89,4.89.6.75,1.45,1.12,2.59,1.12,3.18,0,6.52-2.43,10.01-7.31.22-.28.44-.56.65-.84h0s0,0,0,0c2.27-2.97,4.12-6,5.54-9.1,1.02.37,1.98.54,2.89.54,1.42,0,2.4-.05,2.95-.18-3.16,3.87-4.73,7.49-4.73,10.78,0,4.07,1.89,6.1,5.38,6.1s7.07-2.67,10.52-8.12c.53-.74,1.2-1.63,2.01-2.66-.12.82-.18,1.6-.18,2.33,0,2.75.74,4.87,2.23,6.4,1.49,1.53,3.51,2.28,6.05,2.28,3.49,0,6.31-.67,8.45-2,2.14-1.33,4.12-3.45,5.93-6.4l-1.38-1.1Zm-147.75,6.57c-4.51,0-6.75-2.58-6.75-7.71,0-2.89.67-5.17,2-6.78,1.33-1.63,3.1-2.44,5.35-2.44,2.12,0,3.82.67,5.1,2.03,1.28,1.35,1.93,3.24,1.93,5.66,0,2.79-.68,5.01-2.07,6.7-1.37,1.68-3.23,2.54-5.56,2.54Zm131.35-5.54c0-.11-.12-.51-.37-1.24-.25-.77-.37-1.7-.37-2.8,0-2.02.54-3.75,1.61-5.19,1.07-1.44,2.38-2.16,3.94-2.16.86,0,1.54.3,2.05.88.51.58.75,1.33.75,2.24,0,3.03-2.54,5.78-7.63,8.26v.02Z"/>
</svg>