<?xml version="1.0" encoding="UTF-8" standalone="no"?>
<svg
   id="Layer_1"
   data-name="Layer 1"
   viewBox="0 0 1230.7561 128"
   version="1.1"
   sodipodi:docname="logo.svg"
   xml:space="preserve"
   width="1230.7561"
   height="128"
   inkscape:version="1.2 (1:1.2.1+202207142221+cd75a1ee6d)"
   xmlns:inkscape="http://www.inkscape.org/namespaces/inkscape"
   xmlns:sodipodi="http://sodipodi.sourceforge.net/DTD/sodipodi-0.dtd"
   xmlns="http://www.w3.org/2000/svg"
   xmlns:svg="http://www.w3.org/2000/svg"><sodipodi:namedview
     id="namedview31"
     pagecolor="#ffffff"
     bordercolor="#000000"
     borderopacity="0.25"
     inkscape:showpageshadow="2"
     inkscape:pageopacity="0.0"
     inkscape:pagecheckerboard="0"
     inkscape:deskcolor="#d1d1d1"
     showgrid="false"
     inkscape:zoom="0.89888915"
     inkscape:cx="556.24211"
     inkscape:cy="265.32749"
     inkscape:window-width="3766"
     inkscape:window-height="2096"
     inkscape:window-x="74"
     inkscape:window-y="27"
     inkscape:window-maximized="1"
     inkscape:current-layer="Layer_1" /><defs
     id="defs4"><style
       id="style2">.cls-1{fill:#1b6e78;}.cls-2{fill:none;stroke:#1b6e78;stroke-miterlimit:10;stroke-width:4px;}.cls-3{font-size:115.54px;fill:#808285;font-family:Verlag-XLight, Verlag;font-weight:300;letter-spacing:0.14em;}.cls-4{fill:#999b9e;}.cls-5,.cls-6,.cls-7,.cls-8{fill:#4a4b4c;}.cls-5{letter-spacing:0.13em;}.cls-6{letter-spacing:0.13em;}.cls-7{letter-spacing:0.13em;}</style></defs><g
     id="g2332"
     transform="translate(1,1)"><g
       id="g2310"><path
         d="m 237.33557,67.126472 c 0,-21.522813 -16.68882,-42.355055 -47.76454,-42.355055 -7.48119,0 -15.19257,0.690571 -19.10581,1.266048 v 83.674255 c 3.91324,0.57547 11.62462,1.26604 19.10581,1.26604 31.07572,0 47.76454,-20.026569 47.76454,-43.851288 z m -3.91324,0 c 0,22.788861 -15.65296,40.513528 -44.42677,40.513528 -5.75477,0 -11.16424,-0.46038 -14.7322,-0.92076 V 29.029941 c 3.56796,-0.460381 8.97743,-0.920762 14.7322,-0.920762 28.65872,0 44.42677,18.415242 44.42677,39.017293 z"
         id="path1259"
         style="font-weight:300;font-size:115.54px;font-family:Verlag-XLight, Verlag;letter-spacing:0.14em;fill:#808285;stroke-width:0.999996" /><path
         d="m 316.42326,110.057 v -3.33776 H 274.2984 V 68.852901 h 38.09653 V 65.630234 H 274.2984 V 29.029941 h 42.12486 V 25.692179 H 270.50025 V 110.057 Z"
         id="path1261"
         style="font-weight:300;font-size:115.54px;font-family:Verlag-XLight, Verlag;letter-spacing:0.14em;fill:#808285;stroke-width:0.999996" /><path
         d="m 392.76262,89.454952 c 0,-13.005764 -10.35857,-18.415241 -21.8681,-23.594528 -10.12838,-4.60381 -20.37186,-8.632144 -20.37186,-20.947337 0,-9.898192 8.63214,-17.264289 20.71715,-17.264289 7.1359,0 13.35105,2.532096 17.72467,5.524573 l 1.95661,-3.107572 c -4.94909,-3.337763 -11.62462,-5.754763 -19.2209,-5.754763 -14.7322,0 -24.86058,8.862335 -24.86058,21.062432 0,13.12086 10.47367,18.415242 21.98319,23.594528 10.12839,4.603811 20.25677,8.74724 20.25677,20.947337 0,11.049147 -9.89819,18.185047 -21.40772,18.185047 -8.63214,0 -16.22843,-3.10757 -23.24924,-7.59628 l -1.84152,3.10757 c 7.48119,4.834 15.99824,7.82648 24.51529,7.82648 13.81143,0 25.66624,-8.17177 25.66624,-21.983198 z"
         id="path1263"
         style="font-weight:300;font-size:115.54px;font-family:Verlag-XLight, Verlag;letter-spacing:0.14em;fill:#808285;stroke-width:0.999996" /><path
         d="M 430.53167,110.057 V 25.692179 h -3.79815 V 110.057 Z"
         id="path1265"
         style="font-weight:300;font-size:115.54px;font-family:Verlag-XLight, Verlag;letter-spacing:0.14em;fill:#808285;stroke-width:0.999996" /><path
         d="m 509.17455,71.615187 v 3.337763 h 25.78134 v 23.709623 c -6.67552,5.524567 -15.88314,8.977427 -26.35681,8.977427 -21.52282,0 -40.51353,-14.041618 -40.51353,-39.707861 0,-25.781338 19.56619,-40.283341 39.59277,-40.283341 12.085,0.115096 20.60205,4.14343 28.88891,10.128383 l 2.07171,-2.992477 C 529.8917,28.56956 520.91427,24.311036 507.79341,24.311036 c -22.55867,0 -43.6211,15.998241 -43.6211,43.736198 0,28.083243 21.63791,42.930526 44.19658,42.930526 12.2001,0 22.21338,-3.91323 30.38515,-10.70385 V 71.615187 Z"
         id="path1267"
         style="font-weight:300;font-size:115.54px;font-family:Verlag-XLight, Verlag;letter-spacing:0.14em;fill:#808285;stroke-width:0.999996" /><path
         d="M 635.56739,110.74757 V 25.692179 h -3.79815 V 101.88524 L 574.5669,24.886512 573.30085,25.001607 V 110.057 h 3.56795 V 33.518656 l 57.43254,77.344014 z"
         id="path1269"
         style="font-weight:300;font-size:115.54px;font-family:Verlag-XLight, Verlag;letter-spacing:0.14em;fill:#808285;stroke-width:0.999996" /><path
         d="m 754.31556,89.454952 c 0,-13.005764 -10.35858,-18.415241 -21.8681,-23.594528 -10.12839,-4.60381 -20.37186,-8.632144 -20.37186,-20.947337 0,-9.898192 8.63214,-17.264289 20.71714,-17.264289 7.13591,0 13.35105,2.532096 17.72467,5.524573 l 1.95662,-3.107572 c -4.94909,-3.337763 -11.62462,-5.754763 -19.22091,-5.754763 -14.73219,0 -24.86057,8.862335 -24.86057,21.062432 0,13.12086 10.47367,18.415242 21.98319,23.594528 10.12839,4.603811 20.25677,8.74724 20.25677,20.947337 0,11.049147 -9.89819,18.185047 -21.40772,18.185047 -8.63214,0 -16.22843,-3.10757 -23.24924,-7.59628 l -1.84153,3.10757 c 7.4812,4.834 15.99824,7.82648 24.51529,7.82648 13.81143,0 25.66625,-8.17177 25.66625,-21.983198 z"
         style="font-weight:300;font-size:115.54px;font-family:Verlag-XLight, Verlag;letter-spacing:0.13em;fill:#4a4b4c;stroke-width:0.999996"
         id="path1271" /><path
         d="m 866.4503,67.932139 c 0,-24.630386 -17.83977,-43.275817 -41.43429,-43.275817 -23.59453,0 -41.4343,18.645431 -41.4343,43.275817 0,24.630385 17.83977,43.045621 41.4343,43.045621 23.59452,0 41.43429,-18.415236 41.43429,-43.045621 z m -3.91324,0 c 0,22.558671 -15.76805,39.707861 -37.52105,39.707861 -21.75301,0 -37.52106,-17.14919 -37.52106,-39.707861 0,-22.558671 15.76805,-39.938055 37.52106,-39.938055 21.753,0 37.52105,17.379384 37.52105,39.938055 z"
         style="font-weight:300;font-size:115.54px;font-family:Verlag-XLight, Verlag;letter-spacing:0.13em;fill:#4a4b4c;stroke-width:0.999996"
         id="path1273" /><path
         d="M 961.73052,79.211474 V 25.692179 h -3.79815 V 79.55676 c 0,17.379384 -10.47366,27.96815 -27.50776,27.96815 -17.0341,0 -27.27758,-10.24348 -27.27758,-27.96815 V 25.692179 h -3.79814 v 53.519295 c 0,20.486956 11.16424,31.766286 31.07572,31.766286 19.22091,0 31.30591,-11.739711 31.30591,-31.766286 z"
         style="font-weight:300;font-size:115.54px;font-family:Verlag-XLight, Verlag;letter-spacing:0.13em;fill:#4a4b4c;stroke-width:0.999996"
         id="path1275" /><path
         d="m 1050.532,110.057 -24.4001,-36.139908 c 13.1208,-3.567953 20.602,-12.775573 20.602,-24.054909 0,-15.077479 -11.6246,-24.74548 -31.421,-24.74548 -6.1,0 -10.4736,0.575476 -16.68884,1.381143 V 110.057 h 3.79814 V 74.722759 c 2.8774,0.460381 7.8265,0.805667 11.0492,0.805667 3.2227,0 6.2151,-0.230191 8.9774,-0.805667 l 23.5945,35.334241 z m -7.7113,-60.194817 c 0,13.811431 -11.2794,22.443576 -29.3493,22.443576 -3.6831,0 -8.0567,-0.460381 -11.0492,-0.920762 V 29.490322 c 5.0642,-0.690571 8.1718,-1.035857 12.8907,-1.035857 18.185,0 27.5078,8.862335 27.5078,21.407718 z"
         style="font-weight:300;font-size:115.54px;font-family:Verlag-XLight, Verlag;letter-spacing:0.13em;fill:#4a4b4c;stroke-width:0.999996"
         id="path1277" /><path
         d="m 1150.6615,100.73429 -1.7264,-2.762289 c -8.2869,5.639669 -16.8039,9.667999 -28.6588,9.667999 -20.1417,0 -39.7079,-13.926523 -39.7079,-39.592766 0,-25.781338 19.6814,-40.398436 39.7079,-40.398436 12.085,0.115096 20.6021,4.14343 28.889,10.128383 l 1.9566,-2.992477 c -8.6321,-6.215144 -17.7247,-10.473668 -30.8456,-10.473668 -22.5586,0 -43.621,16.113336 -43.621,43.851293 0,27.392672 20.8322,42.815431 43.5059,42.815431 13.1209,0 21.9832,-4.25852 30.5003,-10.24347 z"
         style="font-weight:300;font-size:115.54px;font-family:Verlag-XLight, Verlag;letter-spacing:0.14em;fill:#4a4b4c;stroke-width:0.999996"
         id="path1279" /><path
         d="m 1229.7561,110.057 v -3.33776 h -42.1249 V 68.852901 h 38.0965 v -3.222667 h -38.0965 V 29.029941 h 42.1249 V 25.692179 H 1183.833 V 110.057 Z"
         style="font-weight:300;font-size:115.54px;font-family:Verlag-XLight, Verlag;letter-spacing:0.14em;fill:#4a4b4c;stroke-width:0.999996"
         id="path1281" /></g><g
       id="g2314"><path
         style="color:#000000;fill:#1b6e78;stroke-miterlimit:10"
         d="m 63,-1 c -35.310655,0 -64,28.689345 -64,64 0,35.310655 28.689345,64 64,64 35.310655,0 64,-28.689345 64,-64 C 127,27.689345 98.310655,-1 63,-1 Z m 0,6 c 32.068017,0 58,25.931983 58,58 0,32.068017 -25.931983,58 -58,58 C 30.931983,121 5,95.068017 5,63 5,30.931983 30.931983,5 63,5 Z"
         id="circle16" /><path
         inkscape:connector-curvature="0"
         style="fill:#1b6e78;fill-opacity:1;fill-rule:nonzero;stroke:none;stroke-width:1.33333"
         d="m 89.975598,27.346466 c -0.327617,0.008 -0.65811,0.05968 -0.980539,0.156847 -1.289736,0.385193 -2.26426,1.447988 -2.544421,2.765712 l 0.0032,0.01292 -5.92428,24.004946 c -0.1801,0.723378 -0.827714,1.23115 -1.574145,1.23115 h -4.297374 -35.086908 -0.02194 c -5.819282,0 -9.808777,4.053169 -9.808777,9.052036 v 4.21235 c 0.0099,4.987851 3.762149,9.031545 9.808777,9.031545 h 0.02194 39.40774 c 0.727422,0.01108 1.356718,0.500507 1.544828,1.198907 l 0.01027,0.01168 1.673806,6.17784 h -14.1397 -28.04431 -7.365024 c -2.063183,0 -3.736021,1.675845 -3.736021,3.738979 0,2.063195 1.672838,3.693632 3.736021,3.693632 h 0.02194 46.253907 l 8.102279,-1.24e-4 v 0 c 1.14865,0 2.231493,-0.53355 2.929894,-1.448052 0.699401,-0.910501 0.937212,-2.095377 0.639036,-3.203953 l 0.02789,-0.0074 -2.926971,-10.892976 -0.0075,0.0061 C 86.636608,73.13144 83.05078,70.383255 78.956419,70.383255 H 70.940775 53.571003 38.93575 38.91381 c -0.889506,0 -1.608566,-0.712546 -1.619576,-1.599051 v -0.02032 l -0.0011,-4.171368 v -0.02032 c 0,-0.896473 0.724535,-1.621019 1.621041,-1.621019 l 40.041344,0.04433 h 0.02194 c 4.151888,-0.0098 7.76818,-2.843002 8.766232,-6.872605 l 0.0061,0.0061 5.91988,-24.069369 -0.04984,-0.02216 c 0.363225,-1.295747 -0.0116,-2.689895 -0.97319,-3.633441 -0.721168,-0.707629 -1.687595,-1.076087 -2.670475,-1.052332 z"
         id="path1731-1"
         sodipodi:nodetypes="cccccsccsscscccccccssscccccccccscccscccscccccccccc"
         clip-path="none" /></g></g></svg>
