<svg xmlns="http://www.w3.org/2000/svg" viewBox="0 0 462.23 240.95"><defs><style>.cls-1,.cls-2{fill:#2a363f;}.cls-2{stroke:#2a363f;stroke-width:1.79px;}</style></defs><g id="Layer_2" data-name="Layer 2"><g id="Layer_1-2" data-name="Layer 1"><path class="cls-1" d="M189.62,240.87q14.24.25,28.22-.35C85.22,238,25.7,186.87,38.89,134.56S133.07,33.74,269.33,36.31q-13.51-1.12-27.77-1.41C123.37,32.68,15.93,77,1.59,133.85S71.43,238.64,189.62,240.87Z"/><path class="cls-2" d="M278.3,3.45c7.05,0,8.93,14.41,4.2,32.17C287.6,16.45,286,.9,279,.9s-16.92,15.55-22,34.72C261.68,17.86,271.24,3.45,278.3,3.45Z"/><path class="cls-2" d="M261.15,67.79c-7.06,0-8.94-14.39-4.2-32.17-5.11,19.18-3.54,34.72,3.52,34.72s16.92-15.54,22-34.72C277.76,53.4,268.21,67.79,261.15,67.79Z"/><path class="cls-2" d="M246.4,18.8c5.26-5.94,20-3.21,32.86,6.08-13.89-10-29.45-13.34-34.72-7.4s1.74,18.85,15.65,28.88C247.3,37.07,241.13,24.74,246.4,18.8Z"/><path class="cls-2" d="M293.06,52.44c-5.28,5.93-20,3.21-32.87-6.08,13.9,10,29.45,13.35,34.72,7.41s-1.75-18.87-15.65-28.89C292.15,34.16,298.32,46.51,293.06,52.44Z"/><path class="cls-2" d="M237.4,52.34c-2.08-6,10.71-18.26,28.56-27.49-19.26,10-33.2,22.86-31.12,28.81s19.38,2.68,38.66-7.27C255.64,55.62,239.48,58.28,237.4,52.34Z"/><path class="cls-2" d="M302.05,18.91c2.07,5.94-10.7,18.26-28.55,27.48,19.25-10,33.19-22.87,31.11-28.81S285.23,14.89,266,24.85C283.81,15.63,300,13,302.05,18.91Z"/><path class="cls-2" d="M275.48,36.24c-1,3.68-4.45,6.67-7.75,6.67s-5.18-3-4.2-6.67,4.45-6.68,7.76-6.68S276.46,32.55,275.48,36.24Z"/><path class="cls-1" d="M158.66,169.8c.65-2.18,2.2-3.27,3.25-3.27h36.73l3.17-14.66H144.43L132.18,208.7H150.4l3.43-15.84c.56-2.6,1.43-3.8,3.6-3.86h36.35L197,174.33H160.24v0C157.8,174.31,158.28,171.31,158.66,169.8Z"/><path class="cls-1" d="M112.45,108.27c.61-2.17,2.09-3.26,3.1-3.26h35.1l3-14.67H98.85L87.14,147.18h17.41l3.28-15.85c.53-2.59,1.37-3.79,3.44-3.86H146l3-14.67H114v0C111.63,112.78,112.08,109.77,112.45,108.27Z"/><polygon class="cls-1" points="459.07 105.71 462.23 90.43 409.81 90.28 398.06 147.16 450.5 147.23 453.65 131.97 417.62 131.97 418.85 125.99 454.89 125.99 458.04 110.71 422.01 110.71 423.04 105.71 459.07 105.71"/><path class="cls-1" d="M288.17,90.31H227.55l-3.31,16h17.45c5.09,0,3.68,4.72,3.68,4.72l-7.48,36.17h16.42l7.4-35.85c.64-3.07,1.82-5.07,5.58-5h17.57Z"/><path class="cls-1" d="M206.4,90.43l-8.52,41.29H170.16c-5.22,0-4.27-3.77-3.95-5.31l7.43-36H157.22L147,139.81s-1.72,7.42,6.54,7.42l57.55-.07,11.71-56.73Z"/><path class="cls-1" d="M396.07,136.88c1.37-9.29,1.32-12.79-2.64-15.58,0,0,7-2.77,9.68-15.81,0,0,2.7-15.21-6.69-15.21H342l-3,14.47-5.57,27H305.62c-3,0-4.76-1.14-4-5l7.49-36.25H292.73l-9.38,45.45-.07,0s-2,11.31,12.31,11.31l51-.07,8.76-42.41h27.85c1.41,0,3.14,1.51,2.42,5,0,0-.52,5.11-4.33,5.11H359.1l-3.16,15.26H374.6c5,0,6.31,2.63,5.25,7.76-1.33,6.41-1.2,8.45.83,9.33h15.81S394.7,146.19,396.07,136.88Z"/><path class="cls-1" d="M266.72,198.31c-1.26,5.83-6.76,10.54-12.27,10.54H202.78c-5.52,0-9-4.71-7.71-10.54l7.74-35.84c1.26-5.82,6.75-10.54,12.27-10.54h51.67c5.52,0,9,4.72,7.71,10.54Zm-13-26.49c.6-2.77-1.05-5-3.69-5H225.36a6.44,6.44,0,0,0-5.86,5L215.8,189c-.6,2.78,1,5,3.68,5h24.69a6.43,6.43,0,0,0,5.86-5Z"/><path class="cls-1" d="M350.22,164l0-.15c2.71-12.38-9.78-11.95-9.78-11.95L285,151.81l-3.62,16.78H329c3,0,3.56,1,2.83,4.41l-3.7,17.16c-1,4.43-2.91,3.85-5,3.85H292.63c-1,0-2.94-.31-2.27-2.95,0,0,.64-2.94,3.07-2.94l31,0L327.92,172H286.86l-.77.07c-2.13.33-8.08,2.09-10.21,12l-2.94,13.58s-2.56,11.05,5.25,11.05h55.35c8.21,0,10-13.23,10-13.23Z"/><polygon class="cls-1" points="419.13 151.93 397.06 185.02 389.17 151.93 358.87 151.93 346.62 208.62 364.5 208.59 372.25 172.69 381.31 208.62 402.6 208.62 427.11 172.8 419.37 208.62 437.25 208.59 449.49 151.93 419.13 151.93"/></g></g></svg>